<svg width="400" height="200" viewBox="0 0 400 200" xmlns="http://www.w3.org/2000/svg">
  <defs>
    <linearGradient id="dubaiGradient" x1="0%" y1="0%" x2="100%" y2="100%">
      <stop offset="0%" style="stop-color:#fef3c7;stop-opacity:1" />
      <stop offset="100%" style="stop-color:#fed7aa;stop-opacity:1" />
    </linearGradient>
  </defs>
  <rect width="400" height="200" fill="url(#dubaiGradient)"/>
  
  <!-- Burj Al Arab -->
  <rect x="180" y="80" width="40" height="100" fill="#f59e0b" stroke="#d97706" stroke-width="2"/>
  <rect x="185" y="85" width="30" height="90" fill="#fbbf24"/>
  
  <!-- Dome -->
  <ellipse cx="200" cy="75" rx="25" ry="10" fill="#f59e0b" stroke="#d97706" stroke-width="2"/>
  
  <!-- Windows -->
  <rect x="190" y="95" width="5" height="8" fill="#1e40af"/>
  <rect x="205" y="95" width="5" height="8" fill="#1e40af"/>
  <rect x="190" y="110" width="5" height="8" fill="#1e40af"/>
  <rect x="205" y="110" width="5" height="8" fill="#1e40af"/>
  <rect x="190" y="125" width="5" height="8" fill="#1e40af"/>
  <rect x="205" y="125" width="5" height="8" fill="#1e40af"/>
  
  <!-- Palm trees -->
  <rect x="80" y="140" width="8" height="40" fill="#8b4513"/>
  <ellipse cx="84" cy="135" rx="15" ry="8" fill="#22c55e"/>
  <ellipse cx="88" cy="130" rx="12" ry="6" fill="#22c55e"/>
  
  <rect x="320" y="150" width="8" height="30" fill="#8b4513"/>
  <ellipse cx="324" cy="145" rx="12" ry="6" fill="#22c55e"/>
  <ellipse cx="328" cy="140" rx="10" ry="5" fill="#22c55e"/>
  
  <!-- Sun -->
  <circle cx="350" cy="30" r="15" fill="#fbbf24"/>
  <path d="M 350 10 L 350 5 M 365 30 L 370 30 M 350 50 L 350 55 M 335 30 L 330 30" stroke="#f59e0b" stroke-width="2"/>
</svg>
