<svg width="400" height="200" viewBox="0 0 400 200" xmlns="http://www.w3.org/2000/svg">
  <defs>
    <linearGradient id="concertGradient" x1="0%" y1="0%" x2="100%" y2="100%">
      <stop offset="0%" style="stop-color:#a855f7;stop-opacity:1" />
      <stop offset="100%" style="stop-color:#2563eb;stop-opacity:1" />
    </linearGradient>
    <radialGradient id="spotlight" cx="50%" cy="0%" r="50%">
      <stop offset="0%" style="stop-color:#ffffff;stop-opacity:0.3" />
      <stop offset="100%" style="stop-color:#ffffff;stop-opacity:0" />
    </radialGradient>
  </defs>
  <rect width="400" height="200" fill="url(#concertGradient)"/>
  <rect width="400" height="200" fill="url(#spotlight)"/>
  
  <!-- Stage -->
  <rect x="50" y="120" width="300" height="80" fill="rgba(0,0,0,0.3)"/>
  
  <!-- Performer silhouette -->
  <ellipse cx="200" cy="100" rx="8" ry="12" fill="rgba(0,0,0,0.7)"/>
  <rect x="195" y="110" width="10" height="25" fill="rgba(0,0,0,0.7)"/>
  
  <!-- Audience -->
  <circle cx="80" cy="180" r="3" fill="rgba(255,255,255,0.8)"/>
  <circle cx="100" cy="175" r="2" fill="rgba(255,255,255,0.8)"/>
  <circle cx="120" cy="178" r="3" fill="rgba(255,255,255,0.8)"/>
  <circle cx="140" cy="176" r="2" fill="rgba(255,255,255,0.8)"/>
  <circle cx="160" cy="179" r="3" fill="rgba(255,255,255,0.8)"/>
  <circle cx="180" cy="177" r="2" fill="rgba(255,255,255,0.8)"/>
  <circle cx="220" cy="178" r="3" fill="rgba(255,255,255,0.8)"/>
  <circle cx="240" cy="176" r="2" fill="rgba(255,255,255,0.8)"/>
  <circle cx="260" cy="179" r="3" fill="rgba(255,255,255,0.8)"/>
  <circle cx="280" cy="177" r="2" fill="rgba(255,255,255,0.8)"/>
  <circle cx="300" cy="178" r="3" fill="rgba(255,255,255,0.8)"/>
  <circle cx="320" cy="176" r="2" fill="rgba(255,255,255,0.8)"/>
  
  <!-- Light beams -->
  <path d="M 150 50 L 180 120" stroke="rgba(255,255,255,0.4)" stroke-width="3"/>
  <path d="M 250 50 L 220 120" stroke="rgba(255,255,255,0.4)" stroke-width="3"/>
</svg>
